<?xml version="1.0" encoding="UTF-8"?><svg id="Layer_2" xmlns="http://www.w3.org/2000/svg" viewBox="0 0 261.16 261.84"><defs><style>.cls-1{fill:#353232;}.cls-2{fill:#fcfcfc;}</style></defs><g id="Layer_1-2"><path class="cls-1" d="M61.04,218.5c-6.26,0-11.93-3.17-15.18-8.48-3.32-5.42-3.52-12.15-.53-17.98,13.6-26.6,43.8-85.28,55.36-106.96.05-.1.1-.19.16-.29.45-.8.94-1.67,1.45-2.59,7.41-13.3,18.61-33.39,34.89-37.95,2.07-.61,4.16-.91,6.2-.91,5.27,0,10.17,2.03,13.79,5.71,3.87,3.94,5.95,9.4,5.87,15.39-.05,5.58-1.19,10.48-2.2,14.81,0,0-.2.87-.22.93-1.66,6.76-3.61,13.25-5.3,18.81-.03.1-.06.21-.09.31.41-.18.84-.35,1.28-.51,2.11-.79,4.33-1.18,6.63-1.18,6.4,0,12.38,3.17,15.69,8.3,1.43,2.16,2.38,4.52,2.85,7.09,1.51-.38,3.11-.59,4.79-.59.29,0,.58,0,.87.02,8.34.33,15.46,6.45,17.07,14.64.76,3.67.38,7.04-.2,9.74,4.46.42,8.39,2.68,10.95,6.33,3.06,4.36,3.64,10.09,1.6,15.71-1.22,3.34-3.58,6.61-5.95,9.31,2.59,2.93,4.18,6.77,4.27,11.04.17,9.12-6.53,16.97-15.59,18.25-.12.02-.24.03-.36.05-36.44,4.15-44.78,5.56-72.39,10.22-5.41.91-11.54,1.95-18.74,3.15-.1.02-.2.03-.3.05-.77.11-1.55.17-2.31.17h0c-7.87,0-14.46-5.91-15.34-13.75-.64-5.75,1.87-11.19,6.25-14.52-.68-1.51-1.18-3.13-1.46-4.84-.17-.94-.27-1.86-.33-2.75-7.88,13.91-15.88,28.05-19.69,35.63-1.55,3.09-4.25,5.47-7.52,6.61-2.03.71-4.12,1.07-6.22,1.07h0Z"/><path class="cls-1" d="M60.34,219.39c-6.32,0-12.05-3.2-15.33-8.57-3.35-5.48-3.55-12.27-.54-18.16,13.74-26.87,44.24-86.14,55.92-108.04.05-.1.1-.19.16-.29.46-.81.95-1.69,1.47-2.62,7.49-13.44,18.8-33.72,35.24-38.33,2.09-.61,4.2-.92,6.27-.92,5.32,0,10.27,2.05,13.93,5.77,3.91,3.98,6.01,9.5,5.92,15.54-.05,5.63-1.2,10.59-2.22,14.96,0,0-.21.88-.22.94-1.68,6.82-3.64,13.39-5.35,19-.03.1-.06.21-.1.31.42-.18.85-.35,1.3-.51,2.13-.79,4.38-1.2,6.69-1.2,6.47,0,12.5,3.2,15.84,8.38,1.44,2.18,2.41,4.57,2.88,7.16,1.53-.38,3.14-.6,4.83-.6.29,0,.58,0,.87.02,8.42.33,15.61,6.51,17.24,14.79.77,3.7.38,7.12-.21,9.84,4.5.43,8.47,2.7,11.06,6.4,3.09,4.41,3.68,10.19,1.61,15.87-1.23,3.38-3.62,6.68-6.01,9.4,2.62,2.96,4.23,6.84,4.31,11.15.18,9.21-6.59,17.14-15.75,18.44-.12.02-.24.03-.37.05-36.81,4.19-45.23,5.61-73.13,10.32-5.46.92-11.65,1.97-18.93,3.18-.1.02-.2.03-.3.05-.78.11-1.56.17-2.34.17h0c-7.95,0-14.61-5.97-15.5-13.89-.65-5.81,1.89-11.3,6.31-14.67-.69-1.53-1.19-3.17-1.48-4.89-.17-.95-.27-1.88-.33-2.78-7.96,14.05-16.04,28.33-19.89,35.99-1.57,3.13-4.29,5.52-7.59,6.68-2.05.72-4.16,1.08-6.28,1.08h0Z"/><path class="cls-1" d="M59.63,220.28c-6.38,0-12.17-3.24-15.49-8.65-3.38-5.53-3.59-12.39-.54-18.35,13.88-27.14,44.69-87.01,56.49-109.13.05-.1.1-.19.16-.29.46-.82.96-1.71,1.48-2.64,7.56-13.57,18.98-34.06,35.59-38.72,2.11-.62,4.24-.93,6.33-.93,5.38,0,10.37,2.07,14.07,5.83,3.95,4.02,6.07,9.59,5.98,15.7-.05,5.69-1.22,10.69-2.25,15.11,0,0-.21.89-.22.94-1.7,6.89-3.68,13.52-5.41,19.19-.03.1-.06.21-.1.31.42-.18.86-.36,1.31-.52,2.15-.8,4.42-1.21,6.76-1.21,6.53,0,12.63,3.24,16,8.47,1.46,2.2,2.43,4.62,2.91,7.23,1.54-.39,3.17-.61,4.88-.61.29,0,.59,0,.88.02,8.5.34,15.77,6.58,17.41,14.94.78,3.74.39,7.19-.21,9.94,4.55.43,8.56,2.73,11.17,6.46,3.12,4.45,3.71,10.3,1.63,16.03-1.24,3.41-3.65,6.75-6.07,9.49,2.65,2.99,4.27,6.91,4.35,11.27.18,9.3-6.66,17.31-15.91,18.62-.12.02-.25.03-.37.05-37.18,4.24-45.68,5.67-73.86,10.42-5.52.93-11.77,1.99-19.12,3.21-.1.02-.2.03-.3.05-.78.11-1.58.17-2.36.17h0c-8.03,0-14.76-6.03-15.65-14.03-.66-5.87,1.91-11.42,6.37-14.82-.69-1.54-1.2-3.2-1.49-4.94-.17-.96-.27-1.9-.33-2.8-8.04,14.19-16.2,28.61-20.09,36.35-1.59,3.16-4.34,5.58-7.67,6.75-2.07.73-4.2,1.1-6.34,1.1h0Z"/><path class="cls-1" d="M58.91,221.18c-6.45,0-12.29-3.27-15.64-8.74-3.42-5.59-3.62-12.52-.55-18.53,14.02-27.41,45.14-87.89,57.06-110.24.05-.1.11-.2.16-.29.47-.83.97-1.72,1.5-2.67,7.64-13.71,19.18-34.41,35.95-39.11,2.13-.62,4.28-.94,6.39-.94,5.43,0,10.48,2.09,14.21,5.89,3.99,4.06,6.14,9.69,6.04,15.86-.05,5.75-1.23,10.8-2.27,15.26,0,0-.21.9-.22.95-1.71,6.96-3.72,13.66-5.46,19.39-.03.11-.07.21-.1.32.43-.19.87-.36,1.32-.52,2.17-.81,4.47-1.22,6.83-1.22,6.6,0,12.76,3.27,16.17,8.55,1.47,2.22,2.45,4.66,2.94,7.3,1.56-.39,3.2-.61,4.93-.61.3,0,.59,0,.89.02,8.59.34,15.93,6.64,17.59,15.09.78,3.78.39,7.26-.21,10.04,4.59.43,8.64,2.76,11.28,6.53,3.15,4.5,3.75,10.4,1.64,16.19-1.25,3.44-3.69,6.81-6.13,9.59,2.67,3.02,4.31,6.98,4.4,11.38.18,9.4-6.73,17.49-16.07,18.81-.12.02-.25.03-.37.05-37.55,4.28-46.15,5.73-74.61,10.53-5.57.94-11.89,2.01-19.32,3.24-.1.02-.2.03-.31.05-.79.11-1.59.17-2.38.17h0c-8.11,0-14.91-6.09-15.81-14.17-.66-5.93,1.93-11.53,6.44-14.97-.7-1.56-1.21-3.23-1.51-4.99-.17-.97-.28-1.92-.33-2.83-8.12,14.34-16.37,28.9-20.29,36.72-1.6,3.19-4.38,5.63-7.75,6.82-2.09.73-4.24,1.11-6.41,1.11h0Z"/><path class="cls-1" d="M58.19,222.09c-6.51,0-12.42-3.3-15.8-8.83-3.45-5.65-3.66-12.64-.55-18.72,14.16-27.69,45.6-88.77,57.63-111.35.05-.1.11-.2.16-.3.47-.84.98-1.74,1.51-2.7,7.72-13.85,19.37-34.76,36.32-39.51,2.16-.63,4.33-.95,6.46-.95,5.49,0,10.59,2.11,14.35,5.95,4.03,4.1,6.2,9.79,6.11,16.02-.05,5.8-1.24,10.91-2.29,15.42,0,0-.21.91-.23.96-1.73,7.03-3.76,13.8-5.52,19.58-.03.11-.07.21-.1.32.43-.19.87-.36,1.34-.53,2.19-.82,4.51-1.23,6.9-1.23,6.67,0,12.89,3.3,16.33,8.64,1.49,2.24,2.48,4.71,2.97,7.38,1.57-.4,3.23-.62,4.98-.62.3,0,.6,0,.9.02,8.68.34,16.09,6.71,17.77,15.24.79,3.82.39,7.33-.21,10.14,4.64.44,8.73,2.79,11.4,6.59,3.18,4.54,3.79,10.51,1.66,16.35-1.27,3.48-3.73,6.88-6.19,9.69,2.7,3.05,4.36,7.05,4.44,11.5.18,9.49-6.8,17.66-16.23,19-.13.02-.25.03-.38.05-37.93,4.32-46.61,5.79-75.36,10.64-5.63.95-12.01,2.03-19.51,3.27-.1.02-.21.03-.31.05-.8.11-1.61.17-2.41.17h0c-8.19,0-15.06-6.16-15.97-14.32-.67-5.99,1.95-11.65,6.5-15.12-.71-1.57-1.23-3.26-1.52-5.04-.17-.98-.28-1.93-.34-2.86-8.21,14.48-16.53,29.2-20.5,37.09-1.62,3.22-4.42,5.69-7.83,6.89-2.11.74-4.29,1.12-6.47,1.12h0Z"/><path class="cls-1" d="M57.46,223.01c-6.58,0-12.54-3.33-15.96-8.92-3.49-5.7-3.7-12.77-.56-18.91,14.3-27.97,46.06-89.67,58.22-112.48.05-.1.11-.2.16-.3.48-.84.99-1.76,1.53-2.73,7.8-13.99,19.57-35.11,36.68-39.9,2.18-.64,4.37-.96,6.52-.96,5.54,0,10.69,2.13,14.5,6.01,4.07,4.15,6.26,9.89,6.17,16.18-.05,5.86-1.25,11.02-2.31,15.57,0,0-.21.92-.23.97-1.75,7.1-3.79,13.93-5.57,19.78-.03.11-.07.22-.1.32.43-.19.88-.37,1.35-.53,2.22-.83,4.56-1.25,6.97-1.25,6.73,0,13.02,3.33,16.49,8.73,1.5,2.27,2.5,4.76,3,7.45,1.59-.4,3.27-.63,5.03-.63.3,0,.61,0,.91.02,8.76.35,16.25,6.78,17.95,15.39.8,3.86.4,7.41-.21,10.24,4.69.44,8.82,2.81,11.51,6.66,3.21,4.59,3.83,10.61,1.68,16.52-1.28,3.51-3.77,6.95-6.26,9.79,2.73,3.08,4.4,7.12,4.49,11.61.18,9.59-6.86,17.84-16.39,19.19-.13.02-.25.03-.38.05-38.32,4.37-47.08,5.84-76.13,10.74-5.68.96-12.13,2.05-19.71,3.31-.1.02-.21.03-.31.05-.81.12-1.63.17-2.43.17h0c-8.27,0-15.21-6.22-16.13-14.46-.68-6.05,1.96-11.77,6.57-15.27-.72-1.59-1.24-3.3-1.54-5.09-.17-.99-.28-1.95-.34-2.89-8.29,14.63-16.7,29.49-20.7,37.46-1.63,3.25-4.47,5.75-7.9,6.96-2.13.75-4.33,1.13-6.54,1.13h0Z"/><path class="cls-1" d="M56.72,223.94c-6.64,0-12.67-3.37-16.12-9.01-3.52-5.76-3.74-12.9-.57-19.1,14.44-28.25,46.52-90.58,58.8-113.61.05-.1.11-.2.17-.3.48-.85,1-1.78,1.54-2.75,7.87-14.13,19.76-35.46,37.05-40.31,2.2-.64,4.42-.97,6.59-.97,5.6,0,10.8,2.16,14.64,6.07,4.11,4.19,6.32,9.99,6.23,16.34-.05,5.92-1.26,11.13-2.34,15.73,0,0-.22.92-.23.98-1.77,7.18-3.83,14.08-5.63,19.98-.03.11-.07.22-.1.33.44-.19.89-.37,1.36-.54,2.24-.84,4.6-1.26,7.04-1.26,6.8,0,13.15,3.37,16.66,8.82,1.52,2.29,2.53,4.81,3.03,7.53,1.6-.4,3.3-.63,5.08-.63.31,0,.61,0,.92.02,8.85.35,16.42,6.85,18.13,15.55.81,3.89.4,7.48-.22,10.34,4.73.45,8.91,2.84,11.63,6.73,3.25,4.64,3.87,10.72,1.69,16.69-1.29,3.55-3.8,7.02-6.32,9.88,2.75,3.11,4.44,7.2,4.53,11.73.18,9.69-6.93,18.02-16.56,19.39-.13.02-.26.03-.39.05-38.7,4.41-47.56,5.9-76.89,10.85-5.74.97-12.25,2.07-19.91,3.34-.11.02-.21.03-.32.05-.82.12-1.64.18-2.46.18h0c-8.36,0-15.36-6.28-16.29-14.61-.68-6.11,1.98-11.89,6.64-15.43-.72-1.6-1.25-3.33-1.55-5.14-.18-1-.29-1.97-.35-2.92-8.37,14.77-16.87,29.79-20.91,37.84-1.65,3.29-4.51,5.81-7.98,7.03-2.15.76-4.37,1.14-6.6,1.14h0Z"/><path class="cls-1" d="M55.97,224.88c-6.71,0-12.8-3.4-16.28-9.1-3.56-5.82-3.77-13.03-.57-19.29,14.59-28.54,46.99-91.49,59.4-114.76.05-.1.11-.2.17-.31.49-.86,1.01-1.79,1.56-2.78,7.95-14.27,19.96-35.82,37.43-40.71,2.22-.65,4.46-.98,6.66-.98,5.66,0,10.91,2.18,14.79,6.13,4.15,4.23,6.39,10.09,6.29,16.51-.05,5.98-1.28,11.24-2.36,15.89,0,0-.22.93-.23.99-1.78,7.25-3.87,14.22-5.69,20.18-.03.11-.07.22-.1.33.44-.19.9-.38,1.38-.55,2.26-.84,4.65-1.27,7.11-1.27,6.87,0,13.28,3.4,16.83,8.91,1.53,2.31,2.55,4.85,3.06,7.6,1.62-.41,3.33-.64,5.14-.64.31,0,.62,0,.93.02,8.94.35,16.58,6.92,18.31,15.71.82,3.93.41,7.56-.22,10.45,4.78.45,9,2.87,11.75,6.79,3.28,4.68,3.9,10.83,1.71,16.85-1.3,3.59-3.84,7.09-6.38,9.98,2.78,3.14,4.49,7.27,4.58,11.85.19,9.78-7,18.2-16.73,19.58-.13.02-.26.03-.39.05-39.1,4.45-48.04,5.96-77.67,10.96-5.8.98-12.38,2.09-20.11,3.38-.11.02-.21.03-.32.05-.82.12-1.66.18-2.48.18h0c-8.44,0-15.52-6.34-16.46-14.76-.69-6.17,2-12.01,6.7-15.58-.73-1.62-1.26-3.36-1.57-5.2-.18-1.01-.29-1.99-.35-2.95-8.46,14.92-17.04,30.09-21.12,38.22-1.67,3.32-4.56,5.86-8.07,7.1-2.17.76-4.42,1.15-6.67,1.15h0Z"/><path class="cls-1" d="M55.22,225.83c-6.78,0-12.93-3.44-16.45-9.19-3.6-5.88-3.81-13.16-.58-19.49,14.74-28.82,47.47-92.42,60-115.92.06-.1.11-.21.17-.31.49-.87,1.02-1.81,1.57-2.81,8.03-14.42,20.16-36.18,37.81-41.13,2.24-.66,4.51-.99,6.72-.99,5.71,0,11.02,2.2,14.94,6.19,4.2,4.27,6.45,10.19,6.36,16.67-.05,6.04-1.29,11.36-2.39,16.05,0,0-.22.94-.24,1-1.8,7.32-3.91,14.36-5.74,20.39-.03.11-.07.22-.1.33.45-.19.91-.38,1.39-.55,2.28-.85,4.7-1.28,7.18-1.28,6.94,0,13.41,3.44,17,9,1.55,2.34,2.58,4.9,3.09,7.68,1.64-.41,3.37-.64,5.19-.64.31,0,.63,0,.94.02,9.03.36,16.75,6.99,18.5,15.86.82,3.97.41,7.63-.22,10.55,4.83.46,9.09,2.9,11.86,6.86,3.31,4.73,3.94,10.94,1.73,17.03-1.32,3.62-3.88,7.16-6.45,10.08,2.81,3.17,4.53,7.34,4.62,11.97.19,9.88-7.07,18.39-16.9,19.78-.13.02-.26.04-.39.05-39.49,4.5-48.52,6.02-78.46,11.07-5.86.99-12.5,2.11-20.31,3.41-.11.02-.21.03-.32.05-.83.12-1.68.18-2.51.18h0c-8.53,0-15.68-6.41-16.62-14.9-.7-6.23,2.02-12.13,6.77-15.74-.74-1.64-1.28-3.4-1.59-5.25-.18-1.02-.29-2.01-.35-2.98-8.54,15.07-17.21,30.39-21.34,38.61-1.69,3.35-4.61,5.92-8.15,7.17-2.2.77-4.46,1.16-6.74,1.16h0Z"/><path class="cls-1" d="M54.46,226.79c-6.85,0-13.06-3.47-16.62-9.28-3.63-5.94-3.85-13.3-.58-19.68,14.89-29.11,47.95-93.35,60.6-117.09.06-.1.11-.21.17-.31.5-.88,1.03-1.83,1.59-2.84,8.12-14.56,20.37-36.55,38.19-41.54,2.27-.66,4.55-1,6.79-1,5.77,0,11.13,2.22,15.09,6.25,4.24,4.32,6.52,10.29,6.42,16.84-.05,6.1-1.3,11.47-2.41,16.21,0,0-.22.95-.24,1.01-1.82,7.4-3.95,14.51-5.8,20.59-.03.11-.07.23-.1.34.45-.2.92-.38,1.4-.56,2.31-.86,4.75-1.3,7.25-1.3,7.01,0,13.55,3.47,17.17,9.09,1.57,2.36,2.61,4.95,3.12,7.76,1.65-.42,3.4-.65,5.24-.65.32,0,.63,0,.95.02,9.12.36,16.92,7.06,18.68,16.03.83,4.01.41,7.71-.22,10.66,4.88.46,9.18,2.93,11.98,6.93,3.35,4.78,3.98,11.05,1.75,17.2-1.33,3.66-3.92,7.24-6.51,10.19,2.84,3.2,4.58,7.42,4.67,12.09.19,9.98-7.15,18.57-17.07,19.98-.13.02-.26.04-.4.05-39.89,4.55-49.01,6.08-79.25,11.18-5.92,1-12.63,2.13-20.52,3.44-.11.02-.22.04-.33.05-.84.12-1.69.18-2.53.18h0c-8.61,0-15.83-6.47-16.79-15.06-.7-6.3,2.05-12.25,6.84-15.9-.74-1.65-1.29-3.43-1.6-5.3-.18-1.03-.29-2.03-.36-3.01-8.63,15.23-17.38,30.7-21.55,39-1.7,3.39-4.65,5.98-8.23,7.24-2.22.78-4.51,1.17-6.8,1.17h0Z"/><path class="cls-1" d="M53.69,227.76c-6.92,0-13.19-3.51-16.78-9.38-3.67-6-3.89-13.43-.59-19.88,15.04-29.41,48.43-94.29,61.22-118.27.06-.11.11-.21.17-.32.5-.89,1.04-1.85,1.6-2.87,8.2-14.71,20.57-36.92,38.57-41.96,2.29-.67,4.6-1.01,6.86-1.01,5.83,0,11.24,2.24,15.24,6.32,4.28,4.36,6.58,10.4,6.49,17.01-.05,6.17-1.32,11.59-2.43,16.37,0,0-.22.96-.24,1.02-1.84,7.47-3.99,14.65-5.86,20.8-.04.11-.07.23-.1.34.46-.2.93-.39,1.42-.56,2.33-.87,4.79-1.31,7.33-1.31,7.08,0,13.69,3.51,17.34,9.18,1.58,2.38,2.63,5,3.15,7.84,1.67-.42,3.43-.66,5.29-.66.32,0,.64,0,.96.02,9.22.36,17.09,7.13,18.87,16.19.84,4.05.42,7.79-.23,10.77,4.93.47,9.27,2.96,12.11,7,3.38,4.83,4.02,11.16,1.76,17.37-1.34,3.7-3.96,7.31-6.58,10.29,2.87,3.24,4.63,7.49,4.72,12.21.19,10.08-7.22,18.76-17.24,20.18-.13.02-.27.04-.4.05-40.29,4.59-49.51,6.15-80.05,11.3-5.98,1.01-12.76,2.15-20.72,3.48-.11.02-.22.04-.33.05-.85.12-1.71.18-2.56.18h0c-8.7,0-15.99-6.54-16.96-15.21-.71-6.36,2.07-12.37,6.91-16.06-.75-1.67-1.3-3.46-1.62-5.35-.18-1.04-.3-2.06-.36-3.04-8.72,15.38-17.56,31.01-21.77,39.39-1.72,3.42-4.7,6.04-8.31,7.31-2.24.79-4.55,1.19-6.87,1.19h0Z"/><path class="cls-1" d="M52.91,228.74c-6.99,0-13.32-3.54-16.95-9.47-3.71-6.06-3.93-13.57-.59-20.08,15.19-29.71,48.92-95.24,61.83-119.47.06-.11.11-.21.17-.32.51-.9,1.05-1.87,1.62-2.9,8.28-14.86,20.78-37.29,38.96-42.38,2.31-.68,4.64-1.02,6.93-1.02,5.89,0,11.36,2.27,15.4,6.38,4.33,4.4,6.65,10.5,6.55,17.18-.05,6.23-1.33,11.7-2.46,16.54,0,0-.23.97-.24,1.03-1.86,7.55-4.03,14.8-5.92,21.01-.04.11-.07.23-.11.34.46-.2.94-.39,1.43-.57,2.35-.88,4.84-1.32,7.4-1.32,7.15,0,13.82,3.54,17.52,9.27,1.6,2.41,2.66,5.05,3.18,7.92,1.69-.43,3.47-.66,5.35-.66.32,0,.64,0,.97.02,9.31.37,17.27,7.2,19.06,16.35.85,4.1.42,7.87-.23,10.88,4.98.47,9.37,2.99,12.23,7.07,3.41,4.88,4.06,11.27,1.78,17.55-1.36,3.73-4,7.38-6.65,10.39,2.9,3.27,4.67,7.57,4.76,12.33.19,10.19-7.29,18.95-17.41,20.38-.13.02-.27.04-.4.05-40.7,4.64-50.01,6.21-80.86,11.41-6.04,1.02-12.89,2.17-20.93,3.51-.11.02-.22.04-.33.05-.86.12-1.73.19-2.58.19h0c-8.79,0-16.16-6.6-17.13-15.36-.72-6.42,2.09-12.5,6.98-16.22-.76-1.69-1.32-3.5-1.63-5.41-.19-1.05-.3-2.08-.36-3.07-8.81,15.54-17.74,31.32-21.99,39.79-1.74,3.46-4.75,6.1-8.4,7.39-2.26.8-4.6,1.2-6.94,1.2h0Z"/><path class="cls-1" d="M52.13,229.73c-7.06,0-13.46-3.58-17.12-9.57-3.74-6.12-3.97-13.7-.6-20.29,15.34-30.01,49.41-96.21,62.46-120.67.06-.11.12-.22.18-.32.51-.91,1.06-1.89,1.64-2.92,8.36-15.01,20.99-37.67,39.36-42.81,2.34-.68,4.69-1.03,7-1.03,5.95,0,11.47,2.29,15.55,6.45,4.37,4.45,6.72,10.61,6.62,17.36-.05,6.29-1.34,11.82-2.48,16.71,0,0-.23.98-.24,1.04-1.88,7.62-4.07,14.95-5.98,21.22-.04.12-.07.23-.11.35.47-.2.95-.39,1.45-.57,2.38-.89,4.89-1.34,7.48-1.34,7.22,0,13.96,3.58,17.7,9.36,1.61,2.43,2.69,5.1,3.21,8,1.7-.43,3.5-.67,5.4-.67.32,0,.65,0,.98.02,9.4.37,17.44,7.27,19.25,16.52.86,4.14.43,7.95-.23,10.99,5.03.48,9.46,3.02,12.35,7.14,3.45,4.92,4.11,11.38,1.8,17.72-1.37,3.77-4.04,7.46-6.71,10.5,2.93,3.3,4.72,7.64,4.81,12.46.2,10.29-7.37,19.14-17.59,20.59-.14.02-.27.04-.41.05-41.11,4.68-50.51,6.27-81.67,11.53-6.1,1.03-13.02,2.2-21.14,3.55-.11.02-.22.04-.34.05-.87.12-1.74.19-2.61.19h0c-8.88,0-16.32-6.67-17.31-15.52-.73-6.49,2.11-12.62,7.05-16.38-.77-1.7-1.33-3.54-1.65-5.46-.19-1.06-.3-2.1-.37-3.1-8.89,15.69-17.92,31.64-22.21,40.19-1.75,3.49-4.79,6.17-8.48,7.46-2.29.8-4.64,1.21-7.01,1.21h0Z"/><path class="cls-1" d="M51.34,230.72c-7.13,0-13.59-3.61-17.3-9.66-3.78-6.18-4.01-13.84-.61-20.49,15.5-30.31,49.91-97.18,63.09-121.89.06-.11.12-.22.18-.32.52-.92,1.07-1.91,1.65-2.95,8.45-15.16,21.2-38.05,39.76-43.25,2.36-.69,4.74-1.04,7.07-1.04,6.01,0,11.59,2.31,15.71,6.51,4.41,4.49,6.78,10.72,6.68,17.53-.05,6.35-1.36,11.94-2.51,16.88,0,0-.23.99-.25,1.06-1.89,7.7-4.11,15.1-6.04,21.44-.04.12-.07.23-.11.35.47-.2.96-.4,1.46-.58,2.4-.9,4.94-1.35,7.55-1.35,7.3,0,14.11,3.61,17.88,9.46,1.63,2.46,2.71,5.16,3.25,8.08,1.72-.43,3.54-.68,5.45-.68.33,0,.66,0,.99.02,9.5.38,17.62,7.35,19.45,16.68.87,4.18.43,8.03-.23,11.1,5.08.48,9.56,3.05,12.48,7.22,3.48,4.97,4.15,11.5,1.82,17.9-1.39,3.81-4.08,7.53-6.78,10.6,2.95,3.34,4.77,7.72,4.86,12.58.2,10.39-7.44,19.33-17.77,20.8-.14.02-.28.04-.41.05-41.53,4.73-51.02,6.33-82.5,11.64-6.16,1.04-13.15,2.22-21.36,3.59-.11.02-.23.04-.34.05-.87.13-1.76.19-2.64.19h0c-8.97,0-16.48-6.74-17.48-15.67-.73-6.55,2.13-12.75,7.12-16.55-.78-1.72-1.34-3.57-1.67-5.52-.19-1.07-.31-2.12-.37-3.13-8.98,15.85-18.1,31.96-22.44,40.6-1.77,3.53-4.84,6.23-8.57,7.54-2.31.81-4.69,1.22-7.08,1.22h0Z"/><path class="cls-1" d="M50.53,231.73c-7.2,0-13.73-3.65-17.47-9.76-3.82-6.24-4.05-13.98-.61-20.7,15.65-30.61,50.42-98.16,63.73-123.12.06-.11.12-.22.18-.33.52-.92,1.08-1.92,1.67-2.98,8.53-15.31,21.42-38.43,40.16-43.68,2.38-.7,4.79-1.05,7.14-1.05,6.07,0,11.7,2.34,15.87,6.58,4.46,4.54,6.85,10.82,6.75,17.71-.05,6.42-1.37,12.06-2.53,17.05,0,0-.23,1-.25,1.07-1.91,7.78-4.15,15.25-6.1,21.65-.04.12-.07.24-.11.35.48-.21.97-.4,1.48-.59,2.43-.91,4.99-1.36,7.63-1.36,7.37,0,14.25,3.65,18.06,9.55,1.65,2.48,2.74,5.21,3.28,8.16,1.74-.44,3.58-.68,5.51-.68.33,0,.66,0,1,.02,9.59.38,17.79,7.42,19.64,16.85.88,4.22.44,8.11-.23,11.21,5.13.49,9.65,3.08,12.6,7.29,3.52,5.02,4.19,11.62,1.84,18.08-1.4,3.85-4.12,7.61-6.85,10.71,2.98,3.37,4.82,7.8,4.91,12.71.2,10.5-7.51,19.53-17.95,21.01-.14.02-.28.04-.42.05-41.94,4.78-51.54,6.4-83.33,11.76-6.22,1.05-13.28,2.24-21.57,3.62-.11.02-.23.04-.34.05-.88.13-1.78.19-2.66.19h0c-9.06,0-16.65-6.81-17.66-15.83-.74-6.62,2.15-12.88,7.19-16.72-.78-1.74-1.36-3.61-1.68-5.57-.19-1.08-.31-2.14-.37-3.16-9.07,16.01-18.28,32.28-22.66,41.01-1.79,3.56-4.89,6.29-8.65,7.61-2.33.82-4.74,1.24-7.15,1.24h0Z"/><path class="cls-1" d="M49.73,232.75c-7.27,0-13.87-3.69-17.65-9.86-3.86-6.31-4.09-14.12-.62-20.91,15.81-30.92,50.93-99.15,64.37-124.37.06-.11.12-.22.18-.33.53-.93,1.09-1.94,1.69-3.01,8.62-15.47,21.63-38.82,40.56-44.12,2.41-.7,4.83-1.06,7.21-1.06,6.13,0,11.82,2.36,16.03,6.64,4.5,4.58,6.92,10.93,6.82,17.89-.05,6.48-1.38,12.18-2.56,17.22,0,0-.24,1.01-.25,1.08-1.93,7.86-4.19,15.41-6.16,21.87-.04.12-.07.24-.11.36.48-.21.98-.41,1.49-.59,2.45-.91,5.04-1.38,7.7-1.38,7.45,0,14.39,3.69,18.24,9.65,1.66,2.51,2.77,5.26,3.31,8.24,1.76-.44,3.61-.69,5.57-.69.33,0,.67,0,1.01.02,9.69.38,17.97,7.5,19.84,17.02.88,4.26.44,8.19-.24,11.32,5.18.49,9.75,3.11,12.73,7.36,3.55,5.08,4.23,11.73,1.85,18.27-1.41,3.89-4.16,7.69-6.92,10.82,3.01,3.4,4.87,7.88,4.96,12.84.2,10.6-7.59,19.73-18.13,21.22-.14.02-.28.04-.42.05-42.37,4.83-52.06,6.46-84.17,11.88-6.29,1.06-13.41,2.26-21.79,3.66-.12.02-.23.04-.35.05-.89.13-1.8.19-2.69.19h0c-9.15,0-16.82-6.88-17.84-15.99-.75-6.69,2.17-13.01,7.26-16.89-.79-1.76-1.37-3.64-1.7-5.63-.19-1.09-.31-2.16-.38-3.19-9.17,16.17-18.46,32.61-22.89,41.42-1.81,3.6-4.94,6.36-8.74,7.69-2.36.83-4.79,1.25-7.23,1.25h0Z"/><path class="cls-1" d="M48.91,233.78c-7.35,0-14.01-3.72-17.83-9.96-3.9-6.37-4.13-14.26-.63-21.12,15.97-31.24,51.44-100.15,65.02-125.62.06-.11.12-.22.18-.33.53-.94,1.1-1.96,1.7-3.04,8.71-15.62,21.85-39.21,40.97-44.57,2.43-.71,4.88-1.07,7.29-1.07,6.19,0,11.94,2.38,16.19,6.71,4.55,4.63,6.99,11.04,6.89,18.07-.05,6.55-1.4,12.31-2.59,17.39,0,0-.24,1.02-.25,1.09-1.95,7.94-4.24,15.56-6.22,22.09-.04.12-.07.24-.11.36.48-.21.99-.41,1.51-.6,2.47-.92,5.09-1.39,7.78-1.39,7.52,0,14.54,3.72,18.42,9.75,1.68,2.53,2.8,5.31,3.35,8.32,1.77-.45,3.65-.7,5.62-.7.34,0,.68,0,1.02.02,9.79.39,18.15,7.57,20.04,17.19.89,4.31.45,8.27-.24,11.44,5.23.49,9.85,3.14,12.86,7.44,3.59,5.13,4.27,11.85,1.87,18.45-1.43,3.93-4.21,7.76-6.99,10.93,3.05,3.44,4.91,7.96,5.01,12.97.2,10.71-7.67,19.93-18.31,21.43-.14.02-.28.04-.43.05-42.8,4.88-52.59,6.53-85.02,12-6.35,1.07-13.55,2.29-22.01,3.69-.12.02-.23.04-.35.05-.9.13-1.82.19-2.72.19h0c-9.24,0-16.99-6.94-18.02-16.15-.75-6.75,2.19-13.14,7.34-17.06-.8-1.77-1.38-3.68-1.72-5.69-.19-1.1-.32-2.18-.38-3.23-9.26,16.34-18.65,32.94-23.12,41.84-1.83,3.63-4.99,6.42-8.83,7.77-2.38.84-4.83,1.26-7.3,1.26h0Z"/><path class="cls-1" d="M48.08,234.82c-7.42,0-14.15-3.76-18.01-10.06-3.94-6.43-4.17-14.41-.63-21.33,16.13-31.55,51.96-101.16,65.68-126.89.06-.11.12-.23.19-.34.54-.95,1.11-1.98,1.72-3.08,8.8-15.78,22.07-39.61,41.39-45.02,2.46-.72,4.93-1.08,7.36-1.08,6.25,0,12.06,2.41,16.36,6.78,4.59,4.68,7.06,11.16,6.96,18.25-.05,6.61-1.41,12.43-2.61,17.57,0,0-.24,1.03-.26,1.1-1.97,8.02-4.28,15.72-6.29,22.31-.04.12-.08.24-.11.37.49-.21,1-.42,1.52-.6,2.5-.93,5.14-1.41,7.86-1.41,7.6,0,14.68,3.76,18.61,9.85,1.7,2.56,2.82,5.37,3.38,8.41,1.79-.45,3.68-.71,5.68-.71.34,0,.68,0,1.03.02,9.89.39,18.34,7.65,20.25,17.37.9,4.35.45,8.36-.24,11.55,5.29.5,9.95,3.18,12.99,7.51,3.63,5.18,4.32,11.97,1.89,18.64-1.44,3.96-4.25,7.84-7.06,11.04,3.08,3.47,4.96,8.04,5.06,13.1.21,10.82-7.74,20.13-18.49,21.65-.14.02-.29.04-.43.06-43.23,4.93-53.12,6.59-85.88,12.12-6.41,1.08-13.69,2.31-22.23,3.73-.12.02-.24.04-.35.06-.91.13-1.83.2-2.74.2h0c-9.34,0-17.16-7.01-18.2-16.32-.76-6.82,2.22-13.27,7.41-17.23-.81-1.79-1.4-3.72-1.74-5.75-.2-1.12-.32-2.2-.39-3.26-9.35,16.5-18.84,33.27-23.36,42.27-1.84,3.67-5.04,6.48-8.92,7.85-2.4.84-4.88,1.27-7.37,1.27h0Z"/><path class="cls-1" d="M47.25,235.87c-7.5,0-14.3-3.8-18.19-10.16-3.98-6.5-4.21-14.55-.64-21.55,16.3-31.87,52.49-102.19,66.34-128.17.06-.11.12-.23.19-.34.54-.96,1.12-2,1.74-3.11,8.88-15.94,22.3-40.01,41.8-45.47,2.48-.73,4.98-1.09,7.43-1.09,6.32,0,12.18,2.43,16.52,6.85,4.64,4.72,7.13,11.27,7.03,18.44-.06,6.68-1.43,12.56-2.64,17.75,0,0-.24,1.04-.26,1.11-1.99,8.1-4.32,15.88-6.35,22.54-.04.12-.08.25-.11.37.49-.22,1.01-.42,1.54-.61,2.53-.94,5.19-1.42,7.94-1.42,7.67,0,14.83,3.8,18.8,9.95,1.71,2.58,2.85,5.42,3.41,8.49,1.81-.46,3.72-.71,5.74-.71.34,0,.69,0,1.04.02,9.99.4,18.52,7.73,20.45,17.54.91,4.39.45,8.44-.24,11.67,5.34.5,10.05,3.21,13.12,7.59,3.66,5.23,4.36,12.09,1.91,18.83-1.46,4.01-4.29,7.92-7.13,11.15,3.11,3.51,5.01,8.12,5.11,13.23.21,10.93-7.82,20.33-18.68,21.87-.14.02-.29.04-.43.06-43.67,4.98-53.65,6.66-86.75,12.24-6.48,1.09-13.82,2.33-22.46,3.77-.12.02-.24.04-.36.06-.92.13-1.85.2-2.77.2h0c-9.43,0-17.33-7.09-18.38-16.48-.77-6.89,2.24-13.41,7.49-17.4-.82-1.81-1.41-3.75-1.75-5.8-.2-1.13-.32-2.23-.39-3.29-9.45,16.67-19.03,33.61-23.59,42.69-1.86,3.71-5.09,6.55-9.01,7.93-2.43.85-4.93,1.29-7.45,1.29h0Z"/><path class="cls-1" d="M46.41,236.93c-7.57,0-14.44-3.84-18.37-10.27-4.02-6.56-4.26-14.7-.64-21.76,16.46-32.19,53.02-103.22,67.01-129.47.06-.12.12-.23.19-.35.55-.97,1.14-2.02,1.76-3.14,8.97-16.1,22.52-40.41,42.23-45.93,2.51-.73,5.03-1.1,7.51-1.1,6.38,0,12.31,2.46,16.69,6.92,4.69,4.77,7.21,11.38,7.1,18.62-.06,6.75-1.44,12.68-2.66,17.92,0,0-.25,1.05-.26,1.12-2.01,8.18-4.37,16.04-6.41,22.77-.04.12-.08.25-.11.37.5-.22,1.02-.42,1.55-.62,2.55-.95,5.25-1.43,8.02-1.43,7.75,0,14.98,3.84,18.99,10.05,1.73,2.61,2.88,5.48,3.45,8.58,1.83-.46,3.76-.72,5.79-.72.35,0,.7,0,1.05.02,10.09.4,18.71,7.8,20.66,17.72.92,4.44.46,8.53-.25,11.79,5.39.51,10.15,3.24,13.25,7.66,3.7,5.28,4.4,12.21,1.93,19.02-1.47,4.05-4.33,8-7.2,11.26,3.14,3.54,5.06,8.2,5.16,13.37.21,11.04-7.9,20.54-18.87,22.09-.15.02-.29.04-.44.06-44.11,5.03-54.2,6.73-87.63,12.37-6.54,1.1-13.96,2.36-22.69,3.81-.12.02-.24.04-.36.06-.93.13-1.87.2-2.8.2h0c-9.52,0-17.51-7.16-18.57-16.65-.78-6.96,2.26-13.54,7.56-17.58-.82-1.83-1.43-3.79-1.77-5.86-.2-1.14-.33-2.25-.39-3.33-9.54,16.84-19.22,33.95-23.83,43.12-1.88,3.75-5.14,6.62-9.1,8.01-2.45.86-4.98,1.3-7.52,1.3h0Z"/><path class="cls-1" d="M45.56,238c-7.65,0-14.59-3.88-18.56-10.37-4.06-6.63-4.3-14.85-.65-21.98,16.63-32.52,53.55-104.26,67.69-130.78.06-.12.13-.23.19-.35.55-.98,1.15-2.04,1.77-3.17,9.06-16.27,22.75-40.82,42.65-46.4,2.53-.74,5.08-1.12,7.59-1.12,6.45,0,12.43,2.48,16.86,6.99,4.73,4.82,7.28,11.5,7.17,18.81-.06,6.82-1.46,12.81-2.69,18.11,0,0-.25,1.06-.27,1.13-2.03,8.26-4.41,16.2-6.48,23-.04.13-.08.25-.12.38.5-.22,1.03-.43,1.57-.62,2.58-.96,5.3-1.45,8.1-1.45,7.83,0,15.13,3.88,19.18,10.15,1.75,2.64,2.91,5.53,3.48,8.67,1.85-.47,3.8-.73,5.85-.73.35,0,.71,0,1.06.02,10.19.4,18.9,7.88,20.87,17.9.93,4.48.46,8.61-.25,11.91,5.45.52,10.25,3.27,13.39,7.74,3.74,5.34,4.45,12.34,1.95,19.21-1.49,4.09-4.38,8.08-7.27,11.38,3.17,3.58,5.12,8.28,5.21,13.5.21,11.15-7.98,20.74-19.06,22.31-.15.02-.3.04-.44.06-44.55,5.08-54.74,6.8-88.51,12.49-6.61,1.12-14.1,2.38-22.91,3.85-.12.02-.24.04-.36.06-.94.13-1.89.2-2.83.2h0c-9.62,0-17.68-7.23-18.76-16.82-.79-7.03,2.28-13.68,7.64-17.76-.83-1.85-1.44-3.83-1.79-5.92-.2-1.15-.33-2.27-.4-3.36-9.64,17.01-19.41,34.29-24.07,43.56-1.9,3.78-5.2,6.68-9.19,8.09-2.48.87-5.03,1.31-7.6,1.31h0Z"/><path class="cls-1" d="M44.7,239.08c-7.73,0-14.73-3.92-18.74-10.47-4.1-6.7-4.34-15-.66-22.21,16.8-32.85,54.09-105.31,68.37-132.1.06-.12.13-.24.19-.35.56-.99,1.16-2.07,1.79-3.2,9.16-16.43,22.98-41.23,43.08-46.87,2.56-.75,5.13-1.13,7.66-1.13,6.51,0,12.56,2.51,17.03,7.06,4.78,4.87,7.35,11.61,7.24,19-.06,6.89-1.47,12.94-2.72,18.29,0,0-.25,1.07-.27,1.14-2.05,8.34-4.45,16.37-6.54,23.23-.04.13-.08.25-.12.38.51-.22,1.04-.43,1.58-.63,2.6-.97,5.35-1.46,8.18-1.46,7.91,0,15.29,3.92,19.37,10.25,1.77,2.66,2.94,5.59,3.52,8.75,1.87-.47,3.84-.73,5.91-.73.36,0,.71,0,1.07.02,10.29.41,19.09,7.96,21.08,18.08.94,4.53.47,8.7-.25,12.03,5.5.52,10.36,3.31,13.52,7.82,3.78,5.39,4.49,12.46,1.97,19.4-1.5,4.13-4.42,8.16-7.35,11.49,3.2,3.61,5.17,8.37,5.27,13.64.21,11.26-8.06,20.95-19.25,22.54-.15.02-.3.04-.45.06-45,5.13-55.3,6.86-89.41,12.62-6.68,1.13-14.25,2.4-23.15,3.89-.12.02-.24.04-.37.06-.95.14-1.91.2-2.86.2h0c-9.72,0-17.86-7.3-18.94-16.99-.79-7.1,2.31-13.82,7.72-17.93-.84-1.87-1.45-3.87-1.81-5.98-.2-1.16-.33-2.3-.4-3.39-9.74,17.18-19.61,34.64-24.32,44-1.92,3.82-5.25,6.75-9.28,8.17-2.5.88-5.08,1.33-7.68,1.33h0Z"/><path class="cls-1" d="M43.83,240.17c-7.8,0-14.88-3.96-18.93-10.58-4.14-6.77-4.39-15.15-.66-22.43,16.96-33.18,54.64-106.38,69.06-133.43.06-.12.13-.24.19-.36.57-1,1.17-2.09,1.81-3.23,9.25-16.6,23.21-41.65,43.52-47.34,2.58-.76,5.19-1.14,7.74-1.14,6.58,0,12.68,2.53,17.2,7.13,4.83,4.92,7.43,11.73,7.32,19.19-.06,6.96-1.49,13.07-2.75,18.47,0,0-.25,1.09-.27,1.16-2.07,8.43-4.5,16.53-6.61,23.46-.04.13-.08.26-.12.38.52-.22,1.05-.44,1.6-.63,2.63-.98,5.41-1.48,8.27-1.48,7.99,0,15.44,3.96,19.57,10.35,1.78,2.69,2.97,5.64,3.55,8.84,1.88-.47,3.87-.74,5.97-.74.36,0,.72,0,1.08.02,10.4.41,19.28,8.04,21.29,18.26.95,4.57.47,8.79-.25,12.15,5.56.53,10.46,3.34,13.66,7.9,3.81,5.45,4.54,12.59,1.99,19.6-1.52,4.17-4.47,8.25-7.42,11.61,3.23,3.65,5.22,8.45,5.32,13.78.22,11.38-8.14,21.16-19.45,22.77-.15.02-.3.04-.45.06-45.46,5.18-55.85,6.93-90.31,12.75-6.74,1.14-14.39,2.43-23.38,3.92-.12.02-.25.04-.37.06-.96.14-1.93.21-2.88.21h0c-9.82,0-18.04-7.38-19.14-17.16-.8-7.17,2.33-13.96,7.79-18.12-.85-1.88-1.47-3.91-1.83-6.04-.21-1.17-.34-2.32-.41-3.43-9.83,17.35-19.81,34.99-24.56,44.44-1.94,3.86-5.3,6.82-9.38,8.25-2.53.89-5.14,1.34-7.75,1.34h0Z"/><path class="cls-1" d="M42.96,241.28c-7.88,0-15.03-4-19.13-10.69-4.18-6.83-4.43-15.3-.67-22.66,17.14-33.51,55.19-107.45,69.76-134.78.06-.12.13-.24.2-.36.57-1.01,1.18-2.11,1.83-3.27,9.34-16.76,23.45-42.07,43.96-47.82,2.61-.76,5.24-1.15,7.82-1.15,6.64,0,12.81,2.56,17.37,7.2,4.88,4.97,7.5,11.85,7.39,19.39-.06,7.03-1.5,13.2-2.77,18.66,0,0-.26,1.1-.27,1.17-2.09,8.51-4.55,16.7-6.68,23.7-.04.13-.08.26-.12.39.52-.23,1.06-.44,1.62-.64,2.66-.99,5.46-1.49,8.35-1.49,8.07,0,15.6,4,19.77,10.46,1.8,2.72,3,5.7,3.59,8.93,1.9-.48,3.91-.75,6.03-.75.36,0,.73,0,1.09.02,10.5.42,19.48,8.12,21.5,18.45.96,4.62.48,8.88-.26,12.27,5.62.53,10.57,3.37,13.79,7.98,3.85,5.5,4.59,12.72,2.01,19.8-1.53,4.21-4.51,8.33-7.5,11.73,3.27,3.69,5.27,8.54,5.37,13.91.22,11.49-8.23,21.38-19.64,23-.15.02-.3.04-.46.06-45.92,5.23-56.42,7-91.22,12.87-6.81,1.15-14.54,2.45-23.62,3.96-.12.02-.25.04-.38.06-.97.14-1.95.21-2.91.21h0c-9.92,0-18.23-7.45-19.33-17.33-.81-7.25,2.35-14.1,7.87-18.3-.86-1.9-1.48-3.95-1.84-6.1-.21-1.18-.34-2.34-.41-3.46-9.93,17.53-20.01,35.34-24.81,44.89-1.96,3.9-5.35,6.89-9.47,8.33-2.55.9-5.19,1.35-7.83,1.35h0Z"/><path class="cls-1" d="M42.07,242.39c-7.96,0-15.18-4.04-19.32-10.79-4.22-6.9-4.48-15.46-.68-22.89,17.31-33.85,55.75-108.54,70.46-136.14.06-.12.13-.24.2-.36.58-1.02,1.19-2.13,1.85-3.3,9.44-16.93,23.68-42.49,44.4-48.3,2.64-.77,5.29-1.16,7.9-1.16,6.71,0,12.94,2.58,17.55,7.27,4.93,5.02,7.58,11.97,7.47,19.58-.06,7.1-1.52,13.34-2.8,18.85,0,0-.26,1.11-.28,1.18-2.12,8.6-4.59,16.87-6.75,23.94-.04.13-.08.26-.12.39.53-.23,1.07-.45,1.63-.65,2.68-1,5.52-1.51,8.43-1.51,8.15,0,15.75,4.04,19.96,10.57,1.82,2.74,3.03,5.76,3.63,9.02,1.92-.48,3.95-.76,6.09-.76.37,0,.73,0,1.1.02,10.61.42,19.67,8.21,21.72,18.63.97,4.67.48,8.97-.26,12.39,5.67.54,10.68,3.41,13.93,8.06,3.89,5.56,4.63,12.84,2.03,20-1.55,4.25-4.56,8.41-7.57,11.84,3.3,3.73,5.33,8.62,5.43,14.06.22,11.61-8.31,21.59-19.84,23.23-.15.02-.31.04-.46.06-46.38,5.29-56.99,7.07-92.14,13-6.88,1.16-14.68,2.48-23.85,4-.13.02-.25.04-.38.06-.98.14-1.97.21-2.94.21h0c-10.02,0-18.41-7.53-19.52-17.51-.82-7.32,2.38-14.24,7.95-18.48-.87-1.92-1.5-3.99-1.86-6.16-.21-1.2-.34-2.37-.41-3.5-10.03,17.7-20.21,35.7-25.06,45.35-1.98,3.94-5.41,6.96-9.57,8.42-2.58.91-5.24,1.37-7.91,1.37h0Z"/><path class="cls-1" d="M41.18,243.52c-8.04,0-15.34-4.08-19.51-10.9-4.27-6.97-4.52-15.61-.68-23.12,17.48-34.19,56.31-109.63,71.18-137.52.07-.12.13-.25.2-.37.58-1.03,1.21-2.15,1.86-3.33,9.53-17.1,23.92-42.92,44.85-48.79,2.66-.78,5.34-1.17,7.98-1.17,6.78,0,13.07,2.61,17.73,7.35,4.98,5.07,7.65,12.09,7.54,19.78-.06,7.17-1.53,13.47-2.83,19.04,0,0-.26,1.12-.28,1.19-2.14,8.69-4.64,17.04-6.81,24.18-.04.13-.08.26-.12.4.53-.23,1.08-.45,1.65-.65,2.71-1.01,5.57-1.52,8.52-1.52,8.23,0,15.91,4.08,20.17,10.67,1.84,2.77,3.06,5.82,3.66,9.11,1.94-.49,3.99-.76,6.15-.76.37,0,.74,0,1.11.03,10.72.42,19.87,8.29,21.94,18.82.98,4.71.49,9.06-.26,12.52,5.73.54,10.78,3.44,14.08,8.14,3.93,5.61,4.68,12.97,2.05,20.2-1.56,4.3-4.6,8.5-7.65,11.96,3.33,3.76,5.38,8.71,5.48,14.2.22,11.72-8.39,21.81-20.04,23.46-.16.02-.31.04-.47.06-46.85,5.34-57.56,7.15-93.07,13.14-6.95,1.17-14.83,2.5-24.1,4.04-.13.02-.25.04-.38.06-.99.14-1.99.21-2.97.21h0c-10.12,0-18.6-7.6-19.72-17.68-.83-7.39,2.4-14.39,8.03-18.67-.87-1.94-1.51-4.03-1.88-6.23-.21-1.21-.35-2.39-.42-3.53-10.14,17.88-20.42,36.06-25.31,45.8-2,3.98-5.46,7.03-9.66,8.5-2.6.92-5.29,1.38-7.99,1.38h0Z"/><path class="cls-1" d="M40.27,244.66c-8.12,0-15.49-4.12-19.71-11.01-4.31-7.04-4.57-15.77-.69-23.35,17.66-34.54,56.88-110.74,71.89-138.9.07-.12.13-.25.2-.37.59-1.04,1.22-2.17,1.88-3.37,9.63-17.28,24.16-43.36,45.3-49.28,2.69-.79,5.4-1.18,8.06-1.18,6.85,0,13.2,2.64,17.9,7.42,5.03,5.12,7.73,12.21,7.62,19.98-.06,7.24-1.55,13.61-2.86,19.23,0,0-.26,1.13-.28,1.2-2.16,8.77-4.68,17.21-6.88,24.43-.04.13-.08.27-.12.4.54-.23,1.09-.45,1.67-.66,2.74-1.02,5.63-1.54,8.61-1.54,8.32,0,16.07,4.12,20.37,10.78,1.86,2.8,3.09,5.88,3.7,9.2,1.96-.49,4.03-.77,6.22-.77.37,0,.75,0,1.12.03,10.82.43,20.07,8.37,22.16,19.01.99,4.76.49,9.15-.27,12.65,5.79.55,10.89,3.48,14.22,8.22,3.97,5.67,4.73,13.1,2.07,20.4-1.58,4.34-4.65,8.59-7.73,12.08,3.37,3.8,5.43,8.8,5.54,14.34.23,11.84-8.48,22.03-20.25,23.7-.16.02-.31.04-.47.06-47.32,5.39-58.15,7.22-94.01,13.27-7.02,1.18-14.98,2.53-24.34,4.09-.13.02-.26.04-.39.06-1,.14-2.01.22-3,.22h0c-10.22,0-18.78-7.68-19.92-17.86-.83-7.47,2.43-14.53,8.11-18.86-.88-1.96-1.53-4.07-1.9-6.29-.22-1.22-.35-2.41-.42-3.57-10.24,18.06-20.62,36.42-25.57,46.27-2.02,4.02-5.52,7.1-9.76,8.59-2.63.92-5.35,1.39-8.07,1.39h0Z"/><path class="cls-1" d="M39.36,245.8c-8.21,0-15.65-4.16-19.91-11.12-4.35-7.11-4.61-15.93-.7-23.59,17.84-34.89,57.45-111.86,72.62-140.31.07-.13.13-.25.2-.37.6-1.05,1.23-2.19,1.9-3.4,9.73-17.45,24.41-43.79,45.76-49.78,2.72-.79,5.45-1.2,8.14-1.2,6.92,0,13.34,2.66,18.09,7.5,5.08,5.17,7.81,12.34,7.69,20.18-.06,7.31-1.56,13.75-2.89,19.43,0,0-.27,1.14-.28,1.21-2.18,8.86-4.73,17.38-6.95,24.67-.04.13-.08.27-.12.4.54-.24,1.1-.46,1.68-.67,2.76-1.03,5.69-1.55,8.69-1.55,8.4,0,16.24,4.16,20.58,10.89,1.88,2.83,3.12,5.94,3.74,9.3,1.98-.5,4.07-.78,6.28-.78.38,0,.76,0,1.14.03,10.93.43,20.28,8.46,22.39,19.2,1,4.81.5,9.24-.27,12.77,5.85.55,11,3.51,14.36,8.31,4.01,5.73,4.77,13.24,2.09,20.61-1.59,4.38-4.7,8.67-7.81,12.21,3.4,3.84,5.49,8.89,5.6,14.49.23,11.96-8.56,22.26-20.45,23.94-.16.02-.32.04-.48.06-47.8,5.45-58.73,7.29-94.96,13.4-7.09,1.2-15.13,2.55-24.59,4.13-.13.02-.26.04-.39.06-1.01.14-2.03.22-3.03.22h0c-10.32,0-18.97-7.76-20.12-18.04-.84-7.54,2.45-14.68,8.19-19.05-.89-1.98-1.55-4.11-1.92-6.35-.22-1.23-.35-2.44-.43-3.6-10.34,18.25-20.83,36.79-25.83,46.73-2.04,4.06-5.57,7.17-9.86,8.68-2.66.93-5.4,1.41-8.15,1.41h0Z"/><path class="cls-1" d="M38.44,246.96c-8.29,0-15.81-4.2-20.11-11.24-4.4-7.19-4.66-16.09-.71-23.83,18.02-35.24,58.03-112.99,73.35-141.73.07-.13.14-.25.21-.38.6-1.06,1.24-2.22,1.92-3.43,9.82-17.63,24.65-44.24,46.22-50.28,2.74-.8,5.51-1.21,8.22-1.21,6.99,0,13.47,2.69,18.27,7.57,5.13,5.22,7.89,12.46,7.77,20.39-.06,7.39-1.58,13.89-2.92,19.62,0,0-.27,1.15-.29,1.23-2.2,8.95-4.78,17.56-7.02,24.92-.04.14-.08.27-.13.41.55-.24,1.11-.46,1.7-.67,2.79-1.04,5.74-1.57,8.78-1.57,8.49,0,16.4,4.2,20.78,11,1.9,2.86,3.16,6,3.77,9.39,2-.5,4.12-.79,6.34-.79.38,0,.76,0,1.15.03,11.04.44,20.48,8.54,22.61,19.4,1.01,4.86.5,9.33-.27,12.9,5.9.56,11.11,3.55,14.51,8.39,4.05,5.78,4.82,13.37,2.11,20.82-1.61,4.43-4.74,8.76-7.88,12.33,3.44,3.88,5.54,8.98,5.65,14.63.23,12.08-8.65,22.48-20.66,24.18-.16.02-.32.04-.48.06-48.28,5.5-59.33,7.36-95.92,13.54-7.16,1.21-15.29,2.58-24.83,4.17-.13.02-.26.04-.39.06-1.02.15-2.05.22-3.06.22h0c-10.43,0-19.17-7.83-20.33-18.22-.85-7.62,2.48-14.83,8.28-19.24-.9-2-1.56-4.15-1.94-6.42-.22-1.25-.36-2.46-.43-3.64-10.45,18.43-21.04,37.16-26.09,47.21-2.06,4.1-5.63,7.24-9.96,8.76-2.68.94-5.45,1.42-8.23,1.42h0Z"/><path class="cls-1" d="M37.51,248.14c-8.37,0-15.97-4.24-20.31-11.35-4.44-7.26-4.71-16.26-.71-24.07,18.2-35.6,58.62-114.13,74.1-143.16.07-.13.14-.26.21-.38.61-1.08,1.26-2.24,1.94-3.47,9.92-17.8,24.9-44.68,46.69-50.79,2.77-.81,5.56-1.22,8.3-1.22,7.06,0,13.61,2.72,18.45,7.65,5.18,5.28,7.97,12.59,7.85,20.59-.06,7.46-1.59,14.03-2.95,19.82,0,0-.27,1.16-.29,1.24-2.22,9.04-4.83,17.74-7.09,25.18-.04.14-.08.28-.13.41.55-.24,1.12-.47,1.72-.68,2.82-1.05,5.8-1.59,8.87-1.59,8.57,0,16.57,4.24,20.99,11.11,1.91,2.88,3.19,6.06,3.81,9.49,2.02-.51,4.16-.8,6.41-.8.39,0,.77,0,1.16.03,11.16.44,20.69,8.63,22.84,19.59,1.02,4.91.51,9.43-.27,13.03,5.96.56,11.23,3.58,14.65,8.48,4.09,5.84,4.87,13.51,2.14,21.03-1.63,4.47-4.79,8.85-7.96,12.45,3.47,3.92,5.6,9.07,5.71,14.78.23,12.21-8.74,22.71-20.87,24.43-.16.02-.32.04-.49.06-48.77,5.56-59.93,7.44-96.89,13.67-7.24,1.22-15.44,2.6-25.08,4.21-.13.02-.27.04-.4.06-1.03.15-2.07.22-3.09.22h0c-10.53,0-19.36-7.91-20.53-18.41-.86-7.7,2.5-14.98,8.36-19.44-.91-2.02-1.58-4.19-1.96-6.48-.22-1.26-.36-2.49-.43-3.68-10.55,18.62-21.25,37.54-26.35,47.68-2.08,4.14-5.69,7.32-10.06,8.85-2.71.95-5.51,1.44-8.32,1.44h0Z"/><path class="cls-1" d="M36.57,249.32c-8.46,0-16.13-4.29-20.52-11.47-4.48-7.33-4.75-16.42-.72-24.31,18.39-35.96,59.21-115.28,74.84-144.6.07-.13.14-.26.21-.39.61-1.09,1.27-2.26,1.96-3.5,10.02-17.98,25.15-45.14,47.16-51.3,2.8-.82,5.62-1.23,8.39-1.23,7.13,0,13.75,2.74,18.64,7.72,5.24,5.33,8.05,12.71,7.93,20.8-.06,7.54-1.61,14.17-2.98,20.02,0,0-.27,1.18-.29,1.25-2.25,9.13-4.88,17.92-7.16,25.43-.04.14-.09.28-.13.42.56-.24,1.14-.47,1.73-.69,2.85-1.06,5.86-1.6,8.96-1.6,8.66,0,16.73,4.29,21.21,11.22,1.93,2.91,3.22,6.12,3.85,9.58,2.04-.51,4.2-.8,6.47-.8.39,0,.78,0,1.17.03,11.27.45,20.9,8.72,23.07,19.79,1.03,4.96.51,9.52-.28,13.16,6.02.57,11.34,3.62,14.8,8.56,4.13,5.9,4.92,13.64,2.16,21.24-1.64,4.52-4.84,8.94-8.04,12.58,3.51,3.96,5.66,9.16,5.77,14.93.23,12.33-8.83,22.94-21.08,24.67-.16.02-.33.04-.49.06-49.26,5.61-60.53,7.51-97.87,13.81-7.31,1.23-15.6,2.63-25.34,4.25-.13.02-.27.04-.4.06-1.04.15-2.09.22-3.13.22h0c-10.64,0-19.55-7.99-20.74-18.59-.87-7.78,2.53-15.13,8.45-19.63-.92-2.04-1.59-4.24-1.98-6.55-.22-1.27-.36-2.51-.44-3.71-10.66,18.8-21.47,37.91-26.62,48.16-2.1,4.18-5.75,7.39-10.16,8.94-2.74.96-5.57,1.45-8.4,1.45h0Z"/><path class="cls-1" d="M35.62,250.52c-8.54,0-16.29-4.33-20.73-11.58-4.53-7.41-4.8-16.59-.73-24.55,18.57-36.32,59.81-116.45,75.6-146.06.07-.13.14-.26.21-.39.62-1.1,1.28-2.28,1.98-3.54,10.12-18.17,25.41-45.59,47.64-51.82,2.83-.83,5.68-1.25,8.47-1.25,7.2,0,13.89,2.77,18.83,7.8,5.29,5.38,8.13,12.84,8.01,21.01-.06,7.61-1.63,14.31-3.01,20.22,0,0-.28,1.19-.3,1.26-2.27,9.23-4.93,18.1-7.24,25.69-.04.14-.09.28-.13.42.56-.25,1.15-.48,1.75-.69,2.88-1.07,5.92-1.62,9.05-1.62,8.74,0,16.9,4.33,21.42,11.34,1.95,2.94,3.25,6.18,3.89,9.68,2.06-.52,4.24-.81,6.54-.81.39,0,.79,0,1.18.03,11.38.45,21.11,8.8,23.3,19.99,1.04,5.01.52,9.62-.28,13.3,6.09.58,11.45,3.65,14.95,8.65,4.18,5.96,4.97,13.78,2.18,21.45-1.66,4.56-4.89,9.03-8.13,12.71,3.54,4,5.71,9.25,5.82,15.08.24,12.45-8.91,23.17-21.29,24.92-.17.02-.33.04-.5.06-49.76,5.67-61.14,7.59-98.86,13.95-7.38,1.25-15.75,2.66-25.59,4.3-.14.02-.27.04-.41.06-1.05.15-2.11.23-3.16.23h0c-10.75,0-19.75-8.07-20.95-18.78-.88-7.85,2.55-15.28,8.53-19.83-.93-2.06-1.61-4.28-2-6.61-.23-1.28-.37-2.54-.44-3.75-10.77,18.99-21.68,38.3-26.89,48.65-2.12,4.23-5.8,7.46-10.27,9.03-2.77.97-5.62,1.47-8.49,1.47h0Z"/><path class="cls-1" d="M34.66,251.72c-8.63,0-16.46-4.37-20.94-11.7-4.58-7.48-4.85-16.75-.73-24.8,18.76-36.69,60.42-117.63,76.36-147.54.07-.13.14-.26.22-.39.63-1.11,1.29-2.31,2-3.58,10.23-18.35,25.67-46.05,48.12-52.34,2.86-.83,5.73-1.26,8.56-1.26,7.27,0,14.03,2.8,19.02,7.88,5.34,5.44,8.21,12.97,8.09,21.22-.06,7.69-1.64,14.45-3.04,20.43,0,0-.28,1.2-.3,1.28-2.29,9.32-4.98,18.28-7.31,25.95-.04.14-.09.28-.13.42.57-.25,1.16-.48,1.77-.7,2.91-1.08,5.98-1.63,9.14-1.63,8.83,0,17.07,4.37,21.64,11.45,1.97,2.97,3.28,6.24,3.93,9.78,2.08-.52,4.28-.82,6.6-.82.4,0,.8,0,1.19.03,11.5.46,21.32,8.89,23.54,20.19,1.05,5.06.52,9.72-.28,13.43,6.15.58,11.57,3.69,15.1,8.73,4.22,6.02,5.02,13.92,2.2,21.67-1.68,4.61-4.94,9.12-8.21,12.84,3.58,4.04,5.77,9.35,5.88,15.23.24,12.58-9,23.4-21.5,25.17-.17.02-.33.04-.5.06-50.26,5.73-61.76,7.67-99.86,14.09-7.46,1.26-15.91,2.68-25.85,4.34-.14.02-.27.04-.41.06-1.06.15-2.13.23-3.19.23h0c-10.85,0-19.95-8.16-21.16-18.97-.89-7.93,2.58-15.43,8.62-20.03-.94-2.08-1.62-4.32-2.02-6.68-.23-1.3-.37-2.56-.45-3.79-10.87,19.19-21.9,38.68-27.16,49.14-2.14,4.27-5.86,7.54-10.37,9.12-2.79.98-5.68,1.48-8.57,1.48h0Z"/><path class="cls-1" d="M33.69,252.94c-8.72,0-16.62-4.42-21.15-11.82-4.62-7.56-4.9-16.92-.74-25.05,18.95-37.06,61.03-118.81,77.13-149.03.07-.13.14-.27.22-.4.63-1.12,1.31-2.33,2.02-3.61,10.33-18.54,25.92-46.52,48.61-52.87,2.89-.84,5.79-1.27,8.64-1.27,7.35,0,14.17,2.83,19.21,7.96,5.4,5.49,8.3,13.1,8.17,21.44-.06,7.77-1.66,14.6-3.07,20.63,0,0-.28,1.21-.3,1.29-2.32,9.41-5.03,18.46-7.38,26.21-.04.14-.09.29-.13.43.58-.25,1.17-.49,1.79-.71,2.94-1.1,6.04-1.65,9.23-1.65,8.92,0,17.25,4.42,21.85,11.57,1.99,3,3.32,6.3,3.97,9.88,2.1-.53,4.33-.83,6.67-.83.4,0,.8,0,1.21.03,11.61.46,21.54,8.98,23.78,20.4,1.06,5.11.53,9.81-.28,13.57,6.21.59,11.69,3.73,15.25,8.82,4.26,6.08,5.07,14.06,2.22,21.89-1.69,4.66-4.99,9.21-8.29,12.97,3.61,4.08,5.83,9.44,5.94,15.39.24,12.71-9.1,23.64-21.72,25.43-.17.02-.34.05-.51.06-50.77,5.79-62.38,7.74-100.87,14.23-7.53,1.27-16.07,2.71-26.11,4.38-.14.02-.28.04-.42.06-1.07.15-2.15.23-3.22.23h0c-10.96,0-20.15-8.24-21.37-19.16-.9-8.01,2.6-15.59,8.7-20.23-.95-2.11-1.64-4.37-2.04-6.75-.23-1.31-.38-2.59-.45-3.83-10.98,19.38-22.12,39.07-27.43,49.64-2.17,4.31-5.92,7.62-10.47,9.22-2.82.99-5.74,1.5-8.66,1.5h0Z"/><path class="cls-1" d="M32.71,254.18c-8.8,0-16.79-4.46-21.36-11.94-4.67-7.63-4.95-17.09-.75-25.31,19.14-37.43,61.64-120.01,77.91-150.53.07-.13.14-.27.22-.4.64-1.13,1.32-2.35,2.04-3.65,10.43-18.72,26.19-46.99,49.1-53.41,2.91-.85,5.85-1.28,8.73-1.28,7.42,0,14.31,2.86,19.4,8.04,5.45,5.55,8.38,13.23,8.25,21.65-.06,7.85-1.68,14.75-3.1,20.84,0,0-.29,1.22-.31,1.3-2.34,9.51-5.08,18.65-7.46,26.47-.04.14-.09.29-.13.43.58-.25,1.18-.49,1.81-.72,2.97-1.11,6.1-1.67,9.33-1.67,9.01,0,17.42,4.46,22.08,11.68,2.01,3.03,3.35,6.37,4.01,9.98,2.13-.54,4.37-.84,6.74-.84.41,0,.81,0,1.22.03,11.73.46,21.76,9.07,24.02,20.6,1.07,5.16.53,9.91-.29,13.7,6.27.59,11.8,3.77,15.41,8.91,4.3,6.14,5.12,14.2,2.25,22.11-1.71,4.7-5.04,9.3-8.37,13.1,3.65,4.12,5.89,9.53,6,15.54.24,12.83-9.19,23.88-21.94,25.69-.17.02-.34.05-.51.07-51.28,5.84-63.01,7.82-101.88,14.38-7.61,1.28-16.24,2.74-26.38,4.43-.14.02-.28.05-.42.07-1.08.15-2.18.23-3.25.23h0c-11.07,0-20.36-8.32-21.59-19.36-.9-8.09,2.63-15.75,8.79-20.44-.96-2.13-1.66-4.41-2.06-6.82-.23-1.32-.38-2.62-.46-3.87-11.1,19.58-22.35,39.47-27.71,50.14-2.19,4.36-5.98,7.69-10.58,9.31-2.85,1-5.79,1.51-8.75,1.51h0Z"/><path class="cls-1" d="M31.73,255.42c-8.89,0-16.96-4.51-21.58-12.06-4.72-7.71-5-17.27-.76-25.56,19.33-37.81,62.26-121.23,78.7-152.05.07-.14.15-.27.22-.41.64-1.14,1.33-2.38,2.06-3.69,10.54-18.91,26.45-47.46,49.59-53.95,2.94-.86,5.91-1.3,8.82-1.3,7.49,0,14.45,2.88,19.6,8.12,5.5,5.6,8.46,13.37,8.34,21.87-.07,7.93-1.69,14.9-3.13,21.05,0,0-.29,1.24-.31,1.32-2.36,9.61-5.13,18.84-7.53,26.74-.05.15-.09.29-.13.44.59-.26,1.19-.5,1.82-.72,3-1.12,6.16-1.68,9.42-1.68,9.1,0,17.6,4.51,22.3,11.8,2.03,3.06,3.39,6.43,4.05,10.08,2.15-.54,4.42-.85,6.8-.85.41,0,.82,0,1.23.03,11.85.47,21.97,9.17,24.26,20.81,1.08,5.21.54,10.01-.29,13.84,6.34.6,11.92,3.8,15.56,9,4.35,6.21,5.17,14.35,2.27,22.33-1.73,4.75-5.09,9.4-8.46,13.23,3.69,4.16,5.95,9.63,6.06,15.7.25,12.96-9.28,24.12-22.16,25.94-.17.02-.34.05-.52.07-51.8,5.9-63.65,7.9-102.91,14.52-7.69,1.3-16.4,2.77-26.64,4.47-.14.02-.28.05-.42.07-1.09.16-2.2.24-3.29.24h0c-11.19,0-20.56-8.41-21.81-19.55-.91-8.18,2.66-15.91,8.88-20.64-.97-2.15-1.67-4.45-2.08-6.88-.24-1.34-.38-2.64-.46-3.91-11.21,19.77-22.57,39.87-27.99,50.65-2.21,4.4-6.04,7.77-10.69,9.4-2.88,1.01-5.85,1.53-8.84,1.53h0Z"/><path class="cls-1" d="M30.73,256.68c-8.98,0-17.13-4.55-21.79-12.18-4.76-7.79-5.05-17.44-.76-25.82,19.53-38.19,62.89-122.45,79.5-153.59.07-.14.15-.27.22-.41.65-1.15,1.35-2.4,2.08-3.72,10.65-19.1,26.72-47.94,50.09-54.49,2.97-.87,5.97-1.31,8.91-1.31,7.57,0,14.6,2.91,19.8,8.2,5.56,5.66,8.55,13.5,8.42,22.09-.07,8.01-1.71,15.05-3.16,21.26,0,0-.29,1.25-.31,1.33-2.39,9.7-5.18,19.03-7.61,27.01-.05.15-.09.3-.14.44.59-.26,1.21-.5,1.84-.73,3.03-1.13,6.22-1.7,9.51-1.7,9.2,0,17.77,4.55,22.52,11.92,2.05,3.1,3.42,6.5,4.09,10.18,2.17-.55,4.46-.85,6.87-.85.41,0,.83,0,1.24.03,11.97.47,22.2,9.26,24.51,21.02,1.09,5.27.54,10.11-.29,13.98,6.4.61,12.04,3.84,15.72,9.09,4.39,6.27,5.23,14.49,2.29,22.56-1.75,4.8-5.14,9.49-8.54,13.36,3.72,4.2,6.01,9.73,6.12,15.86.25,13.1-9.37,24.36-22.39,26.21-.17.02-.35.05-.52.07-52.32,5.96-64.29,7.98-103.95,14.67-7.76,1.31-16.57,2.79-26.91,4.52-.14.02-.28.05-.43.07-1.1.16-2.22.24-3.32.24h0c-11.3,0-20.77-8.49-22.03-19.75-.92-8.26,2.68-16.07,8.97-20.85-.98-2.17-1.69-4.5-2.1-6.95-.24-1.35-.39-2.67-.47-3.95-11.32,19.97-22.8,40.27-28.27,51.16-2.23,4.44-6.1,7.85-10.79,9.5-2.91,1.02-5.91,1.54-8.92,1.54h0Z"/><path class="cls-1" d="M29.72,257.95c-9.07,0-17.3-4.6-22.02-12.3-4.81-7.87-5.1-17.62-.77-26.08,19.73-38.58,63.53-123.69,80.3-155.14.07-.14.15-.28.23-.41.66-1.17,1.36-2.43,2.1-3.76,10.75-19.3,26.99-48.42,50.6-55.04,3-.88,6.03-1.32,9-1.32,7.65,0,14.75,2.94,20,8.29,5.62,5.72,8.64,13.64,8.51,22.32-.07,8.09-1.73,15.2-3.19,21.48,0,0-.29,1.26-.31,1.34-2.41,9.8-5.23,19.22-7.69,27.28-.05.15-.09.3-.14.45.6-.26,1.22-.51,1.86-.74,3.06-1.14,6.29-1.72,9.61-1.72,9.29,0,17.95,4.6,22.75,12.04,2.07,3.13,3.45,6.56,4.13,10.28,2.19-.55,4.51-.86,6.94-.86.42,0,.84,0,1.26.03,12.09.48,22.42,9.35,24.75,21.23,1.1,5.32.55,10.22-.3,14.12,6.46.61,12.17,3.88,15.88,9.18,4.43,6.33,5.28,14.64,2.31,22.79-1.76,4.85-5.19,9.59-8.63,13.5,3.76,4.25,6.07,9.83,6.19,16.02.25,13.23-9.47,24.61-22.61,26.47-.18.02-.35.05-.53.07-52.85,6.02-64.94,8.06-105,14.82-7.84,1.32-16.73,2.82-27.18,4.56-.14.02-.29.05-.43.07-1.11.16-2.24.24-3.35.24h0c-11.41,0-20.98-8.58-22.25-19.95-.93-8.34,2.71-16.23,9.06-21.06-.99-2.19-1.71-4.54-2.12-7.02-.24-1.36-.39-2.7-.47-3.98-11.43,20.17-23.03,40.68-28.56,51.68-2.26,4.49-6.16,7.93-10.9,9.59-2.94,1.03-5.97,1.56-9.01,1.56h0Z"/><path class="cls-1" d="M28.7,259.23c-9.16,0-17.48-4.65-22.24-12.43-4.86-7.95-5.15-17.79-.78-26.34,19.92-38.97,64.17-124.94,81.11-156.71.07-.14.15-.28.23-.42.66-1.18,1.37-2.45,2.13-3.8,10.86-19.49,27.26-48.91,51.11-55.6,3.03-.89,6.09-1.34,9.09-1.34,7.72,0,14.9,2.97,20.2,8.37,5.67,5.78,8.72,13.78,8.59,22.54-.07,8.17-1.74,15.35-3.23,21.7,0,0-.3,1.27-.32,1.36-2.44,9.9-5.28,19.42-7.76,27.56-.05.15-.09.3-.14.45.6-.26,1.23-.51,1.88-.75,3.09-1.15,6.35-1.74,9.71-1.74,9.38,0,18.13,4.65,22.98,12.16,2.1,3.16,3.49,6.63,4.17,10.38,2.21-.56,4.55-.87,7.01-.87.42,0,.85,0,1.27.03,12.21.48,22.65,9.45,25,21.45,1.11,5.37.56,10.32-.3,14.27,6.53.62,12.29,3.92,16.04,9.28,4.48,6.4,5.33,14.78,2.34,23.02-1.78,4.9-5.25,9.69-8.72,13.63,3.8,4.29,6.13,9.93,6.25,16.18.25,13.36-9.56,24.86-22.84,26.74-.18.02-.35.05-.53.07-53.39,6.08-65.6,8.14-106.06,14.97-7.92,1.34-16.9,2.85-27.46,4.61-.15.02-.29.05-.44.07-1.12.16-2.26.24-3.39.24h0c-11.53,0-21.19-8.66-22.47-20.15-.94-8.43,2.74-16.39,9.15-21.28-1-2.21-1.73-4.59-2.14-7.1-.24-1.38-.39-2.72-.48-4.03-11.55,20.38-23.26,41.09-28.85,52.2-2.28,4.53-6.23,8.01-11.01,9.69-2.97,1.04-6.03,1.57-9.11,1.57h0Z"/><path class="cls-1" d="M27.67,260.53c-9.26,0-17.65-4.69-22.46-12.55C.3,239.95,0,230,4.42,221.37c20.13-39.36,64.82-126.2,81.93-158.29.08-.14.15-.28.23-.42.67-1.19,1.39-2.47,2.15-3.84,10.97-19.69,27.54-49.41,51.63-56.16,3.06-.9,6.15-1.35,9.18-1.35,7.8,0,15.05,3,20.4,8.46,5.73,5.83,8.81,13.92,8.68,22.77-.07,8.25-1.76,15.51-3.26,21.92,0,0-.3,1.29-.32,1.37-2.46,10-5.34,19.61-7.84,27.84-.05.15-.09.3-.14.46.61-.27,1.24-.52,1.9-.75,3.12-1.16,6.42-1.75,9.81-1.75,9.48,0,18.32,4.69,23.21,12.28,2.12,3.19,3.52,6.7,4.22,10.49,2.24-.56,4.6-.88,7.08-.88.43,0,.85,0,1.28.03,12.33.49,22.88,9.54,25.26,21.66,1.13,5.43.56,10.42-.3,14.41,6.6.62,12.41,3.96,16.2,9.37,4.52,6.46,5.39,14.93,2.36,23.25-1.8,4.95-5.3,9.78-8.81,13.77,3.84,4.33,6.19,10.03,6.31,16.34.26,13.5-9.66,25.11-23.07,27.01-.18.03-.36.05-.54.07-53.93,6.14-66.26,8.23-107.14,15.12-8,1.35-17.07,2.88-27.74,4.66-.15.02-.29.05-.44.07-1.14.16-2.29.25-3.42.25h0c-11.65,0-21.41-8.75-22.7-20.35-.95-8.51,2.77-16.56,9.24-21.49-1.01-2.24-1.74-4.64-2.17-7.17-.25-1.39-.4-2.75-.48-4.07-11.67,20.58-23.5,41.5-29.14,52.72-2.3,4.58-6.29,8.09-11.12,9.79-3,1.05-6.09,1.59-9.2,1.59h0Z"/><path class="cls-1" d="M26.63,261.84c-9.35,0-17.83-4.74-22.69-12.68-4.96-8.11-5.26-18.16-.8-26.88,20.33-39.76,65.47-127.47,82.76-159.89.08-.14.15-.29.23-.43.68-1.2,1.4-2.5,2.17-3.88,11.08-19.89,27.81-49.91,52.15-56.73,3.1-.9,6.21-1.36,9.27-1.36,7.88,0,15.2,3.03,20.61,8.54,5.79,5.89,8.9,14.06,8.77,23-.07,8.33-1.78,15.67-3.29,22.14,0,0-.3,1.3-.32,1.38-2.48,10.1-5.39,19.81-7.92,28.12-.05.15-.09.31-.14.46.62-.27,1.26-.52,1.92-.76,3.15-1.18,6.48-1.77,9.91-1.77,9.57,0,18.5,4.74,23.45,12.41,2.14,3.22,3.56,6.76,4.26,10.6,2.26-.57,4.64-.89,7.15-.89.43,0,.86,0,1.29.03,12.46.49,23.11,9.64,25.51,21.88,1.14,5.48.57,10.53-.31,14.56,6.66.63,12.54,4,16.37,9.47,4.57,6.52,5.44,15.08,2.38,23.48-1.82,5-5.35,9.88-8.89,13.91,3.88,4.38,6.25,10.13,6.38,16.51.26,13.63-9.76,25.36-23.3,27.28-.18.03-.36.05-.54.07-54.47,6.21-66.93,8.31-108.22,15.27-8.08,1.36-17.25,2.91-28.02,4.7-.15.02-.3.05-.45.07-1.15.16-2.31.25-3.46.25h0c-11.76,0-21.62-8.84-22.93-20.56-.96-8.6,2.79-16.73,9.34-21.71-1.02-2.26-1.76-4.68-2.19-7.24-.25-1.41-.4-2.78-.49-4.11-11.78,20.79-23.74,41.92-29.43,53.26-2.32,4.63-6.35,8.17-11.24,9.89-3.03,1.06-6.15,1.6-9.29,1.6h0Z"/><path class="cls-2" d="M236.85,203.44c-.07-3.43-2.91-5.82-6.35-5.33-65.9,9.28-71.72,12.75-137.43,25.47-4.71,1.07-4.17,7.74.41,7.09,65.73-10.95,71.49-12.62,137.26-20.12,3.44-.49,6.18-3.67,6.11-7.1ZM207.23,133.33v-.06c.01-.11,0,.01,0,.05,0,0,0,0,0,.01ZM209.11,177.48s0,0,0,0c-.17-.03-.15-.07,0,0ZM29.29,241.37c12.55-24.97,52.13-91.83,62.69-113.59,12.37-24.76,24.38-49.84,39.63-72.94,2.9-4.1,5.89-8.48,9.36-12.16-.4,1.84-.85,3.67-1.27,5.46-2.14,8.56-4.75,17.3-7.45,26.02-8.15,26.28-17.36,52.63-25.63,79.02-3.42,11.21-7.08,22.68-9.33,34.37-.56,3.38-1.12,6.8-.49,10.27.71,4.51,4.71,7.96,9.52,7.42,5.76-.51,11.22-5.75,14.95-9.64,14.14-15.59,25.99-32.81,38.05-49.83-2.97,8.08-5.9,16.25-8.42,24.27-1.91,6.81-4.58,14.05-3.51,21.11.82,4.63,4.93,7.84,9.81,7.13,3.81-.48,7.54-3.01,10.32-5.4,7.72-6.81,13.74-14.76,20.02-22.63,4.82-6.03,9.33-12.24,14.01-18.25-3.95,11.7-7.74,24.33-4.19,32.39,1.75,4.38,7.19,6.78,11.76,6.1,6.7-.69,14.41-6.13,20.98-11.72,0,0,8.6-7.78,10.48-12.95s-.45-9.55-10.03-2.69c-1.51,1.39-3.18,2.85-4.82,4.21-4.49,3.66-9.99,8.14-15.12,9.99-.07.02-.17.07-.22.08h-.14c-.22.03-.35.12-.59.1-.11,0-.21.01-.29,0-.4-1.64-.1-3.71.28-6,1.21-6.24,3.44-12.34,5.68-18.63,1.55-4.34,3.22-8.64,4.71-13.48.93-3.26,2.02-6.93,1.28-10.31-.57-3.14-3.44-5.75-6.75-5.85-7.93-.42-15.7,10.56-20.66,16.11-9.18,11.09-17.43,22.19-26.66,32.87-.41.48-.85.99-1.32,1.52.06-.19.12-.38.18-.56,2.75-8.43,6.05-17.04,9.33-25.68,3.92-10.92,9.38-23.18,11.76-34.45.51-3.04.52-6.05-1.22-8.58-1.81-2.95-6.27-4.14-9.73-2.79-2.31.8-4.11,2.24-5.85,3.89-10.25,10.81-18.31,23.4-27.05,35.11-8.55,11.79-16.89,23.56-25.96,34.84-.02-.01,0,0-.02,0,1.74-6.3,3.72-12.61,5.68-18.99,8.29-26.42,17.23-52.56,25.41-79.15,2.71-8.91,5.36-17.84,7.63-27.07,1.47-6.31,2.99-12.44,3.04-18.98.14-7.56-4.89-13.18-13.15-10.71-17.78,4.87-33.73,35.84-42.41,51.21-17.5,32.83-63.86,122.95-82.6,159.59-3.12,6.11,1.98,12.22,8.34,9.98h0Z"/></g></svg>