<?xml version="1.0" encoding="UTF-8"?><svg id="Layer_2" xmlns="http://www.w3.org/2000/svg" viewBox="0 0 610.86 297.63"><defs><style>.cls-1{fill:#fff;}</style></defs><g id="Layer_1-2"><path class="cls-1" d="M329.24,175.07c-.07-3.43-2.91-5.82-6.35-5.33-65.9,9.28-131.72,21.12-197.43,33.84-4.71,1.07-4.17,7.74.41,7.09,65.73-10.95,131.49-20.99,197.26-28.49,3.44-.49,6.18-3.67,6.11-7.1ZM374.44,149.39c10.47,5.11,22.18-5.47,29.88-13,4.9-4.99,9.47-10.18,13.93-15.45-1.89,7-3.29,14.04-4.28,20.91-1.06,8.01,10.23,8.53,11.83.55.78-4.69,1.56-9.26,2.55-13.77,2.87-13.68,8.17-26.96,16.08-39.03,4.47-7.81-6.2-12.74-10.35-4.85-.01.03-.03.06-.04.08,0,0,0,0,0,0-2.79,4.22-5.24,8.64-7.41,13.18-7.55,12.14-16.72,23.52-27.06,33.28-4.62,4.13-14.14,12.65-19.75,10.09-.27-.31-.28-.51-.35-1.05-.14-3.38,1.6-7.12,3.3-10.66,5.5-10.51,13.34-20.8,22.47-28.45,1.36-1.04,2.65-2.08,3.94-2.4.14-.03.11.21-.93.45,11.67-1.9,11.68-18.57,0-17.6-5.94,1.14-9.36,4.77-13.15,8.66-9.61,10.37-35.78,49.99-20.64,59.07ZM370.09,123.64c.92-1.64,1.73-3.31,2.44-5,1.01-2.03,2.04-4.05,3.09-6.06,3.93-7.18,14.12-25.47,21.53-27.94,3.03-.04,5.73-2.87,5.62-5.91-.56-5.96-6.84-4.71-10.8-2.33-6.83,4.42-13.2,13.29-18.66,22.62-2.02-4.11-5.76-6.88-11.39-6.34-9.48.92-17.94,7.12-25.4,13.25-4.19,3.65-8.36,7.73-12.04,12.18.48-2.66.55-5.3.1-7.87-.59-4.26-2.81-8.98-6.91-10.8-10.57-4.5-23.85,5.43-32.32,12.62-9.37,8.46-18.77,18.97-22.42,31.05-1.51,1.39-3.18,2.85-4.82,4.21-4.49,3.66-9.99,8.14-15.12,9.99-.07.02-.17.07-.22.08h-.14c-.22.03-.35.12-.59.1-.11,0-.21.01-.29,0-.4-1.64-.1-3.71.28-6,1.21-6.24,3.44-12.34,5.68-18.63,1.55-4.34,3.22-8.64,4.71-13.48.93-3.26,2.02-6.93,1.28-10.31-.57-3.14-3.44-5.75-6.75-5.85-7.93-.42-15.7,10.56-20.66,16.11-9.18,11.09-17.43,22.19-26.66,32.87-.41.48-.85.99-1.32,1.52.06-.19.12-.38.18-.56,2.75-8.43,6.05-17.04,9.33-25.68,3.92-10.92,9.38-23.18,11.76-34.45.51-3.04.52-6.05-1.22-8.58-1.81-2.95-6.27-4.14-9.73-2.79-2.31.8-4.11,2.24-5.85,3.89-10.25,10.81-18.31,23.4-27.05,35.11-8.26,11.39-16.33,22.76-25.04,33.69-.31.37-.62.76-.94,1.14,1.74-6.3,3.72-12.61,5.68-18.99,8.29-26.42,17.23-52.56,25.41-79.15,2.71-8.91,5.36-17.84,7.63-27.07,1.47-6.31,2.99-12.44,3.04-18.98.14-7.56-4.89-13.18-13.15-10.71-17.78,4.87-33.73,35.84-42.41,51.21-21.87,41.02-40.49,85.28-60.08,127.13-11.59,23.89-47.95,108-72.86,112.54-4.13.8-3.87,6.41,0,6.15,2.69-.28,5.32-1.1,7.7-2.26,24.56-12.23,50.46-62.43,63.74-86.83,15.28-28.94,35.5-70.99,49.93-100.75,12.37-24.76,24.38-49.84,39.63-72.94,2.9-4.1,5.89-8.48,9.36-12.16-.4,1.84-.85,3.67-1.27,5.46-2.14,8.56-4.75,17.3-7.45,26.02-8.15,26.28-17.36,52.63-25.63,79.02-3.42,11.21-7.08,22.68-9.33,34.37-.56,3.38-1.12,6.8-.49,10.27.71,4.51,4.71,7.96,9.52,7.42,5.76-.51,11.22-5.75,14.95-9.64,14.14-15.59,25.99-32.81,38.05-49.83-2.97,8.08-5.9,16.25-8.42,24.27-1.91,6.81-4.58,14.05-3.51,21.11.82,4.63,4.93,7.84,9.81,7.13,3.81-.48,7.54-3.01,10.32-5.4,7.72-6.81,13.74-14.76,20.02-22.63,4.82-6.03,9.33-12.24,14.01-18.25-3.95,11.7-7.74,24.33-4.19,32.39,1.75,4.38,7.19,6.78,11.76,6.1,6.7-.69,14.41-6.13,20.98-11.72,2.91,7.17,11.23,9.17,20.31,5.61,7.64-3.06,13.84-7.83,19.87-13.22,3.31-3.08,6.96-6.85,10.32-11-.35,1.65-.59,3.32-.71,5.02-.69,9.36,5,16.44,14.94,14.77,8.7-1.75,16.13-6.82,22.84-12.6-10.43,25.15-19.03,50.78-26.04,76.83-4.64,18.04-8.93,36.48-10.23,55.44,1.33,11.99,18.61,8.56,18.25-3.45-1-16.44,1.22-33.83,4.34-50.6,6.96-34.57,17.97-69.24,33.71-101.92ZM239.63,113.33v-.06c.01-.11,0,.01,0,.05,0,0,0,0,0,.01ZM241.51,157.48s0,0,0,0c-.17-.03-.15-.07,0,0ZM315.26,116.24c-2.85,9.97-12.34,18.61-20.37,25.31-6.29,4.9-13.44,9.83-20.87,11.4-.98.45-1.33-1.68-1.42-2.91,0-.55.01-1.1.05-1.66.31-.88.41-1.75.32-2.57,2.67-15.23,19.75-33.84,33.51-38.5,3.4-.99,5.97-1.24,7.6.61,1.57,2.07,1.67,5.51,1.2,8.33ZM346.33,135.75c-2.65,2-5.33,3.91-8.06,5.54-4.13,2.37-8.26,4.7-12.5,4.87-.48,0-.4.03-.66.29-.1.08-.26.02-.45-.16-.4-.37-.73-1.34-.81-2.54-.4-15.6,18.7-37.94,33.57-43.22,3.42-1.23,7.62-1.53,9.06,1.85,1.02,2.41,1.17,5.37.51,8.22-1.62,3.14-3.1,6.13-4.44,8.81-4.34,6.25-10.28,11.67-16.21,16.33ZM599.56,118.3c-6.37,12.88-30.97,57.04-46.04,55.38-5.8-1.32-3.21-17.03-2.22-22.28,3.95-19.26,11.23-38.63,19.9-56.97,4.98-5.64,9.54-11.62,13.39-18.11,2.56-4.28,3.8-10.11-.97-12.66-3.01-1.55-6.74-.32-9.33,2.12-.41.38-.8.78-1.18,1.2-1.46-2.73-4.85-3.92-8.2-2.75-14.7,4.21-31.63,19.36-41.41,31.39-2.43,2.98-4.83,6.41-6.75,10.03-1.63-3.57-7.16-4.58-10.41-.03-6.11,8.28-13.39,16.47-22.41,21.01-.92.46-1.77.72-2.42.9.2-3.97,2.61-8.73,4.95-12.58,5.85-9.38,14.03-18.19,22.48-25.56,3.16-2.7,6.44-5.26,9.92-7.22.51-.26,1-.52,1.51-.73-.94,1.99-2.4,4-3.76,5.88-1.16,1.42-1.2,3.4-.02,4.58,3.16,2.75,6.01-1.6,8.17-4.04,2.63-3.29,5.85-7.69,4.43-11.96-.91-2.77-3.92-3.95-6.75-3.89-10.15.12-26.59,14.2-34.12,21.58-7.01,7.08-14.68,15.75-18.62,25.34-6.68,5.76-14.26,11.33-22.1,14.16l-1.02.33s-.94.19-.94.19c-.95.25-1.58.26-2.19.11-.11-.04-.13-.06-.22-.17-.83-1.22-.57-4.18-.13-6.16.18-.9.43-1.82.7-2.75.68.18,1.45.26,2.33.17,8.67-1.28,16.06-6.9,22.58-12.63,6.83-6.24,24.94-24.72,18.94-33.62-1.4-2.32-4.82-3.21-7.29-2.8-22.2,2.91-42.42,29.94-47.41,50.7-2.49,10.14,1.45,19.99,13.28,17.67,7.79-1.49,14.71-5.59,21.32-10,2.13,8.53,11.74,10.61,21.03,6.23,10.09-4.71,18.36-12.88,24.12-22.34-.34,3.7.23,7.32,2.13,10.64,6.91,9.94,23.3-3.36,32.77-11.42-1.18,3.18-2.33,6.37-3.45,9.57-4.97,15.5-14.06,44.51-2.47,56.52,4.08,4.13,10.4,5.04,16.3,3.58,17.82-4.73,31.9-27.6,40.9-42.62,4.18-7.2,7.88-14.31,11.35-21.87,3.17-7.51-6.81-11.36-10.69-4.13ZM521.12,79.2c.03-.06.05,0,.03.13-.01.05-.03.1-.05.15-.01-.14,0-.24.02-.28ZM457.65,101.27c4.98-5.34,10.52-9.92,16.77-12.28-5.45,8.07-16.11,18.74-24.52,22.56,2.25-3.65,4.86-7.13,7.76-10.28ZM481.5,128.57c.13.24.05.27,0,0h0ZM528.96,124c-7.51,4.46-10.48,2.75-10.24-5.45,1.26-16.42,31.42-39.53,46.72-40.38.05,0,.1,0,.15,0-3.44,5.92-6.52,11.96-9.33,18.09-7.93,10.35-16.45,20.75-27.3,27.73ZM525.71,153.43c-51.25.74-102.87,3.59-154.42,8.6-4.54.42-8.31,4.61-8.23,9.14.07,4.41,3.71,7.49,8.13,6.87,51.31-7.25,102.52-12.35,153.75-15.38,2.43-.15,4.58-2.21,4.84-4.69.27-2.55-1.56-4.59-4.08-4.54Z"/></g></svg>